<svg width="1512" height="1233" viewBox="0 0 1512 1233" fill="none" xmlns="http://www.w3.org/2000/svg">
<g style="mix-blend-mode:soft-light" opacity="0.24">
<mask id="path-1-inside-1_13_79" fill="white">
<path d="M-310.231 1040.97L-110.082 1031.04L-100.599 1222.15L-300.748 1232.08L-310.231 1040.97Z"/>
<path d="M-319.65 851.151L-119.5 841.22L-110.082 1031.04L-310.231 1040.97L-319.65 851.151Z"/>
<path d="M-329.133 660.041L-128.983 650.11L-119.5 841.22L-319.65 851.151L-329.133 660.041Z"/>
<path d="M-338.616 468.93L-138.466 458.999L-128.983 650.11L-329.133 660.041L-338.616 468.93Z"/>
<path d="M-348.098 277.82L-147.949 267.889L-138.466 458.999L-338.616 468.93L-348.098 277.82Z"/>
<path d="M-357.517 88.0008L-157.368 78.0694L-147.949 267.889L-348.098 277.82L-357.517 88.0008Z"/>
<path d="M-367 -103.11L-166.85 -113.041L-157.368 78.0694L-357.517 88.0008L-367 -103.11Z"/>
<path d="M-110.082 1031.04L92.6506 1020.98L102.133 1212.09L-100.599 1222.15L-110.082 1031.04Z"/>
<path d="M-119.5 841.22L83.2318 831.161L92.6506 1020.98L-110.082 1031.04L-119.5 841.22Z"/>
<path d="M-128.983 650.11L73.7489 640.05L83.2318 831.161L-119.5 841.22L-128.983 650.11Z"/>
<path d="M-138.466 458.999L64.2661 448.94L73.7489 640.05L-128.983 650.11L-138.466 458.999Z"/>
<path d="M-147.949 267.889L54.7832 257.829L64.2661 448.94L-138.466 458.999L-147.949 267.889Z"/>
<path d="M-157.368 78.0694L45.3645 68.0099L54.7832 257.829L-147.949 267.889L-157.368 78.0694Z"/>
<path d="M-166.85 -113.041L35.8816 -123.101L45.3645 68.0099L-157.368 78.0694L-166.85 -113.041Z"/>
<path d="M92.6506 1020.98L292.8 1011.05L302.283 1202.16L102.133 1212.09L92.6506 1020.98Z"/>
<path d="M83.2318 831.161L283.381 821.229L292.8 1011.05L92.6506 1020.98L83.2318 831.161Z"/>
<path d="M73.7489 640.05L273.898 630.119L283.381 821.229L83.2318 831.161L73.7489 640.05Z"/>
<path d="M64.2661 448.94L264.416 439.008L273.898 630.119L73.7489 640.05L64.2661 448.94Z"/>
<path d="M54.7832 257.829L254.933 247.898L264.416 439.008L64.2661 448.94L54.7832 257.829Z"/>
<path d="M45.3645 68.0099L245.514 58.0786L254.933 247.898L54.7832 257.829L45.3645 68.0099Z"/>
<path d="M35.8816 -123.101L236.031 -133.032L245.514 58.0786L45.3645 68.0099L35.8816 -123.101Z"/>
<path d="M292.8 1011.05L495.532 1000.99L505.015 1192.1L302.283 1202.16L292.8 1011.05Z"/>
<path d="M283.381 821.229L486.113 811.17L495.532 1000.99L292.8 1011.05L283.381 821.229Z"/>
<path d="M273.898 630.119L476.631 620.059L486.113 811.17L283.381 821.229L273.898 630.119Z"/>
<path d="M264.416 439.008L467.148 428.949L476.631 620.059L273.898 630.119L264.416 439.008Z"/>
<path d="M254.933 247.898L457.665 237.838L467.148 428.949L264.416 439.008L254.933 247.898Z"/>
<path d="M245.514 58.0786L448.246 48.019L457.665 237.838L254.933 247.898L245.514 58.0786Z"/>
<path d="M236.031 -133.032L438.763 -143.091L448.246 48.019L245.514 58.0786L236.031 -133.032Z"/>
<path d="M495.532 1000.99L696.973 990.993L706.456 1182.1L505.015 1192.1L495.532 1000.99Z"/>
<path d="M486.113 811.17L687.554 801.174L696.973 990.993L495.532 1000.99L486.113 811.17Z"/>
<path d="M476.631 620.059L678.071 610.064L687.554 801.174L486.113 811.17L476.631 620.059Z"/>
<path d="M467.148 428.949L668.589 418.953L678.071 610.064L476.631 620.059L467.148 428.949Z"/>
<path d="M457.665 237.838L659.106 227.843L668.589 418.953L467.148 428.949L457.665 237.838Z"/>
<path d="M448.246 48.019L649.687 38.0236L659.106 227.843L457.665 237.838L448.246 48.019Z"/>
<path d="M438.763 -143.091L640.204 -153.087L649.687 38.0236L448.246 48.019L438.763 -143.091Z"/>
<path d="M695.682 991.058L897.123 981.062L906.605 1172.17L705.165 1182.17L695.682 991.058Z"/>
<path d="M686.263 801.238L887.704 791.243L897.123 981.062L695.682 991.058L686.263 801.238Z"/>
<path d="M676.78 610.128L878.221 600.132L887.704 791.243L686.263 801.238L676.78 610.128Z"/>
<path d="M667.297 419.017L868.738 409.022L878.221 600.132L676.78 610.128L667.297 419.017Z"/>
<path d="M657.814 227.907L859.255 217.911L868.738 409.022L667.297 419.017L657.814 227.907Z"/>
<path d="M648.396 38.0877L849.836 28.0922L859.255 217.911L657.814 227.907L648.396 38.0877Z"/>
<path d="M638.913 -153.023L840.354 -163.018L849.836 28.0922L648.396 38.0877L638.913 -153.023Z"/>
<path d="M1099.85 971.003L1300 961.071L1309.49 1152.18L1109.34 1162.11L1099.85 971.003Z"/>
<path d="M1090.44 781.183L1290.59 771.252L1300 961.071L1099.85 971.003L1090.44 781.183Z"/>
<path d="M1080.95 590.073L1281.1 580.142L1290.59 771.252L1090.44 781.183L1080.95 590.073Z"/>
<path d="M1071.47 398.962L1271.62 389.031L1281.1 580.142L1080.95 590.073L1071.47 398.962Z"/>
<path d="M1061.99 207.852L1262.14 197.921L1271.62 389.031L1071.47 398.962L1061.99 207.852Z"/>
<path d="M1052.57 18.0327L1252.72 8.10137L1262.14 197.921L1061.99 207.852L1052.57 18.0327Z"/>
<path d="M1043.09 -173.078L1243.24 -183.009L1252.72 8.10137L1052.57 18.0327L1043.09 -173.078Z"/>
<path d="M897.123 981.062L1099.85 971.003L1109.34 1162.11L906.605 1172.17L897.123 981.062Z"/>
<path d="M887.704 791.243L1090.44 781.183L1099.85 971.003L897.123 981.062L887.704 791.243Z"/>
<path d="M878.221 600.132L1080.95 590.073L1090.44 781.183L887.704 791.243L878.221 600.132Z"/>
<path d="M868.738 409.022L1071.47 398.962L1080.95 590.073L878.221 600.132L868.738 409.022Z"/>
<path d="M859.255 217.911L1061.99 207.852L1071.47 398.962L868.738 409.022L859.255 217.911Z"/>
<path d="M849.836 28.0922L1052.57 18.0327L1061.99 207.852L859.255 217.911L849.836 28.0922Z"/>
<path d="M840.354 -163.018L1043.09 -173.078L1052.57 18.0327L849.836 28.0922L840.354 -163.018Z"/>
<path d="M1300 961.071L1502.74 951.012L1512.22 1142.12L1309.49 1152.18L1300 961.071Z"/>
<path d="M1290.59 771.252L1493.32 761.193L1502.74 951.012L1300 961.071L1290.59 771.252Z"/>
<path d="M1281.1 580.142L1483.83 570.082L1493.32 761.193L1290.59 771.252L1281.1 580.142Z"/>
<path d="M1271.62 389.031L1474.35 378.972L1483.83 570.082L1281.1 580.142L1271.62 389.031Z"/>
<path d="M1262.14 197.921L1464.87 187.861L1474.35 378.972L1271.62 389.031L1262.14 197.921Z"/>
<path d="M1252.72 8.10137L1455.45 -1.95815L1464.87 187.861L1262.14 197.921L1252.72 8.10137Z"/>
<path d="M1243.24 -183.009L1445.97 -193.069L1455.45 -1.95815L1252.72 8.10137L1243.24 -183.009Z"/>
<path d="M1502.74 951.012L1702.89 941.08L1712.37 1132.19L1512.22 1142.12L1502.74 951.012Z"/>
<path d="M1493.32 761.193L1693.47 751.261L1702.89 941.08L1502.74 951.012L1493.32 761.193Z"/>
<path d="M1483.83 570.082L1683.98 560.151L1693.47 751.261L1493.32 761.193L1483.83 570.082Z"/>
<path d="M1474.35 378.972L1674.5 369.04L1683.98 560.151L1483.83 570.082L1474.35 378.972Z"/>
<path d="M1464.87 187.861L1665.02 177.93L1674.5 369.04L1474.35 378.972L1464.87 187.861Z"/>
<path d="M1455.45 -1.95815L1655.6 -11.8895L1665.02 177.93L1464.87 187.861L1455.45 -1.95815Z"/>
<path d="M1445.97 -193.069L1646.12 -203L1655.6 -11.8895L1455.45 -1.95815L1445.97 -193.069Z"/>
</mask>
<path d="M-310.206 1041.47L-110.057 1031.54L-110.106 1030.54L-310.256 1040.47L-310.206 1041.47ZM-110.581 1031.06L-101.098 1222.17L-100.099 1222.12L-109.582 1031.01L-110.581 1031.06ZM-319.625 851.651L-119.476 841.719L-119.525 840.721L-319.675 850.652L-319.625 851.651ZM-120 841.245L-110.581 1031.06L-109.582 1031.01L-119.001 841.195L-120 841.245ZM-329.108 660.54L-128.958 650.609L-129.008 649.61L-329.157 659.542L-329.108 660.54ZM-129.483 650.134L-120 841.245L-119.001 841.195L-128.484 650.085L-129.483 650.134ZM-338.591 469.43L-138.441 459.499L-138.491 458.5L-338.64 468.431L-338.591 469.43ZM-138.965 459.024L-129.483 650.134L-128.484 650.085L-137.967 458.974L-138.965 459.024ZM-348.074 278.319L-147.924 268.388L-147.974 267.389L-348.123 277.321L-348.074 278.319ZM-148.448 267.913L-138.965 459.024L-137.967 458.974L-147.449 267.864L-148.448 267.913ZM-357.492 88.5002L-157.343 78.5688L-157.392 77.5701L-357.542 87.5014L-357.492 88.5002ZM-157.867 78.0942L-148.448 267.913L-147.449 267.864L-156.868 78.0447L-157.867 78.0942ZM-167.35 -113.016L-157.867 78.0942L-156.868 78.0447L-166.351 -113.066L-167.35 -113.016ZM-110.057 1031.54L92.6753 1021.48L92.6258 1020.48L-110.106 1030.54L-110.057 1031.54ZM92.1512 1021L101.634 1212.12L102.633 1212.07L93.1499 1020.95L92.1512 1021ZM-119.476 841.719L83.2566 831.66L83.207 830.661L-119.525 840.721L-119.476 841.719ZM82.7324 831.185L92.1512 1021L93.1499 1020.95L83.7312 831.136L82.7324 831.185ZM-128.958 650.609L73.7737 640.55L73.7242 639.551L-129.008 649.61L-128.958 650.609ZM73.2495 640.075L82.7324 831.185L83.7312 831.136L74.2483 640.025L73.2495 640.075ZM-138.441 459.499L64.2909 449.439L64.2413 448.44L-138.491 458.5L-138.441 459.499ZM63.7667 448.964L73.2495 640.075L74.2483 640.025L64.7655 448.915L63.7667 448.964ZM-147.924 268.388L54.808 258.329L54.7585 257.33L-147.974 267.389L-147.924 268.388ZM54.2838 257.854L63.7667 448.964L64.7655 448.915L55.2826 257.804L54.2838 257.854ZM-157.343 78.5688L45.3892 68.5093L45.3397 67.5105L-157.392 77.5701L-157.343 78.5688ZM44.8651 68.0347L54.2838 257.854L55.2826 257.804L45.8638 67.9851L44.8651 68.0347ZM35.3822 -123.076L44.8651 68.0347L45.8638 67.9851L36.381 -123.125L35.3822 -123.076ZM92.6753 1021.48L292.825 1011.55L292.775 1010.55L92.6258 1020.48L92.6753 1021.48ZM292.301 1011.07L301.784 1202.18L302.782 1202.13L293.3 1011.02L292.301 1011.07ZM83.2566 831.66L283.406 821.729L283.357 820.73L83.207 830.661L83.2566 831.66ZM282.882 821.254L292.301 1011.07L293.3 1011.02L283.881 821.204L282.882 821.254ZM73.7737 640.55L273.923 630.618L273.874 629.619L73.7242 639.551L73.7737 640.55ZM273.399 630.144L282.882 821.254L283.881 821.204L274.398 630.094L273.399 630.144ZM64.2909 449.439L264.44 439.508L264.391 438.509L64.2413 448.44L64.2909 449.439ZM263.916 439.033L273.399 630.144L274.398 630.094L264.915 438.983L263.916 439.033ZM54.808 258.329L254.958 248.397L254.908 247.398L54.7585 257.33L54.808 258.329ZM254.433 247.923L263.916 439.033L264.915 438.983L255.432 247.873L254.433 247.923ZM45.3892 68.5093L245.539 58.5779L245.489 57.5792L45.3397 67.5105L45.3892 68.5093ZM245.015 58.1033L254.433 247.923L255.432 247.873L246.013 58.0538L245.015 58.1033ZM235.532 -133.007L245.015 58.1033L246.013 58.0538L236.531 -133.057L235.532 -133.007ZM292.825 1011.55L495.557 1001.49L495.507 1000.49L292.775 1010.55L292.825 1011.55ZM495.033 1001.01L504.516 1192.12L505.514 1192.07L496.032 1000.96L495.033 1001.01ZM283.406 821.729L486.138 811.669L486.089 810.67L283.357 820.73L283.406 821.729ZM485.614 811.194L495.033 1001.01L496.032 1000.96L486.613 811.145L485.614 811.194ZM273.923 630.618L476.655 620.559L476.606 619.56L273.874 629.619L273.923 630.618ZM476.131 620.084L485.614 811.194L486.613 811.145L477.13 620.034L476.131 620.084ZM264.44 439.508L467.172 429.448L467.123 428.449L264.391 438.509L264.44 439.508ZM466.648 428.974L476.131 620.084L477.13 620.034L467.647 428.924L466.648 428.974ZM254.958 248.397L457.69 238.338L457.64 237.339L254.908 247.398L254.958 248.397ZM457.165 237.863L466.648 428.974L467.647 428.924L458.164 237.813L457.165 237.863ZM245.539 58.5779L448.271 48.5184L448.221 47.5197L245.489 57.5792L245.539 58.5779ZM447.747 48.0438L457.165 237.863L458.164 237.813L448.745 47.9943L447.747 48.0438ZM438.264 -143.067L447.747 48.0438L448.745 47.9943L439.263 -143.116L438.264 -143.067ZM495.557 1001.49L696.998 991.493L696.948 990.494L495.507 1000.49L495.557 1001.49ZM486.138 811.669L687.579 801.674L687.529 800.675L486.089 810.67L486.138 811.669ZM476.655 620.559L678.096 610.563L678.047 609.564L476.606 619.56L476.655 620.559ZM467.172 429.448L668.613 419.453L668.564 418.454L467.123 428.449L467.172 429.448ZM457.69 238.338L659.13 228.342L659.081 227.343L457.64 237.339L457.69 238.338ZM448.271 48.5184L649.712 38.523L649.662 37.5242L448.221 47.5197L448.271 48.5184ZM695.706 991.557L897.147 981.561L897.098 980.563L695.657 990.558L695.706 991.557ZM896.623 981.087L906.106 1172.2L907.105 1172.15L897.622 981.037L896.623 981.087ZM686.288 801.738L887.729 791.742L887.679 790.744L686.238 800.739L686.288 801.738ZM887.204 791.268L896.623 981.087L897.622 981.037L888.203 791.218L887.204 791.268ZM676.805 610.627L878.246 600.632L878.196 599.633L676.755 609.628L676.805 610.627ZM877.722 600.157L887.204 791.268L888.203 791.218L878.72 600.108L877.722 600.157ZM667.322 419.517L868.763 409.521L868.713 408.523L667.272 418.518L667.322 419.517ZM868.239 409.047L877.722 600.157L878.72 600.108L869.237 408.997L868.239 409.047ZM657.839 228.406L859.28 218.411L859.23 217.412L657.79 227.407L657.839 228.406ZM858.756 217.936L868.239 409.047L869.237 408.997L859.755 217.887L858.756 217.936ZM648.42 38.5871L849.861 28.5916L849.812 27.5929L648.371 37.5883L648.42 38.5871ZM849.337 28.117L858.756 217.936L859.755 217.887L850.336 28.0675L849.337 28.117ZM839.854 -162.993L849.337 28.117L850.336 28.0675L840.853 -163.043L839.854 -162.993ZM1099.88 971.502L1300.03 961.571L1299.98 960.572L1099.83 970.503L1099.88 971.502ZM1299.5 961.096L1308.99 1152.21L1309.99 1152.16L1300.5 961.046L1299.5 961.096ZM1109.84 1162.09L1100.35 970.978L1099.36 971.027L1108.84 1162.14L1109.84 1162.09ZM1090.46 781.683L1290.61 771.751L1290.56 770.753L1090.41 780.684L1090.46 781.683ZM1290.09 771.277L1299.5 961.096L1300.5 961.046L1291.08 771.227L1290.09 771.277ZM1100.35 970.978L1090.94 781.159L1089.94 781.208L1099.36 971.027L1100.35 970.978ZM1080.98 590.572L1281.13 580.641L1281.08 579.642L1080.93 589.574L1080.98 590.572ZM1280.6 580.166L1290.09 771.277L1291.08 771.227L1281.6 580.117L1280.6 580.166ZM1090.94 781.159L1081.45 590.048L1080.45 590.098L1089.94 781.208L1090.94 781.159ZM1071.49 399.462L1271.64 389.53L1271.59 388.532L1071.45 398.463L1071.49 399.462ZM1271.12 389.056L1280.6 580.166L1281.6 580.117L1272.12 389.006L1271.12 389.056ZM1081.45 590.048L1071.97 398.938L1070.97 398.987L1080.45 590.098L1081.45 590.048ZM1062.01 208.351L1262.16 198.42L1262.11 197.421L1061.96 207.353L1062.01 208.351ZM1261.64 197.945L1271.12 389.056L1272.12 389.006L1262.64 197.896L1261.64 197.945ZM1071.97 398.938L1062.49 207.827L1061.49 207.877L1070.97 398.987L1071.97 398.938ZM1052.59 18.5321L1252.74 8.60075L1252.69 7.60198L1052.54 17.5333L1052.59 18.5321ZM1252.22 8.12615L1261.64 197.945L1262.64 197.896L1253.22 8.07659L1252.22 8.12615ZM1062.49 207.827L1053.07 18.008L1052.07 18.0575L1061.49 207.877L1062.49 207.827ZM1242.74 -182.984L1252.22 8.12615L1253.22 8.07659L1243.73 -183.034L1242.74 -182.984ZM1053.07 18.008L1043.59 -173.103L1042.59 -173.053L1052.07 18.0575L1053.07 18.008ZM897.147 981.561L1099.88 971.502L1099.83 970.503L897.098 980.563L897.147 981.561ZM887.729 791.742L1090.46 781.683L1090.41 780.684L887.679 790.744L887.729 791.742ZM878.246 600.632L1080.98 590.572L1080.93 589.574L878.196 599.633L878.246 600.632ZM868.763 409.521L1071.49 399.462L1071.45 398.463L868.713 408.523L868.763 409.521ZM859.28 218.411L1062.01 208.351L1061.96 207.353L859.23 217.412L859.28 218.411ZM849.861 28.5916L1052.59 18.5321L1052.54 17.5333L849.812 27.5929L849.861 28.5916ZM1300.03 961.571L1502.76 951.511L1502.71 950.512L1299.98 960.572L1300.03 961.571ZM1502.24 951.036L1511.72 1142.15L1512.72 1142.1L1503.24 950.987L1502.24 951.036ZM1290.61 771.751L1493.34 761.692L1493.29 760.693L1290.56 770.753L1290.61 771.751ZM1492.82 761.217L1502.24 951.036L1503.24 950.987L1493.82 761.168L1492.82 761.217ZM1281.13 580.641L1483.86 570.581L1483.81 569.583L1281.08 579.642L1281.13 580.641ZM1483.34 570.107L1492.82 761.217L1493.82 761.168L1484.33 570.057L1483.34 570.107ZM1271.64 389.53L1474.38 379.471L1474.33 378.472L1271.59 388.532L1271.64 389.53ZM1473.85 378.996L1483.34 570.107L1484.33 570.057L1474.85 378.947L1473.85 378.996ZM1262.16 198.42L1464.89 188.36L1464.84 187.362L1262.11 197.421L1262.16 198.42ZM1464.37 187.886L1473.85 378.996L1474.85 378.947L1465.37 187.836L1464.37 187.886ZM1252.74 8.60075L1455.47 -1.45876L1455.43 -2.45753L1252.69 7.60198L1252.74 8.60075ZM1454.95 -1.93337L1464.37 187.886L1465.37 187.836L1455.95 -1.98293L1454.95 -1.93337ZM1445.47 -193.044L1454.95 -1.93337L1455.95 -1.98293L1446.47 -193.093L1445.47 -193.044ZM1502.76 951.511L1702.91 941.58L1702.86 940.581L1502.71 950.512L1502.76 951.511ZM1493.34 761.692L1693.49 751.761L1693.44 750.762L1493.29 760.693L1493.34 761.692ZM1483.86 570.581L1684.01 560.65L1683.96 559.651L1483.81 569.583L1483.86 570.581ZM1474.38 379.471L1674.53 369.54L1674.48 368.541L1474.33 378.472L1474.38 379.471ZM1464.89 188.36L1665.04 178.429L1664.99 177.43L1464.84 187.362L1464.89 188.36ZM1455.47 -1.45876L1655.62 -11.3901L1655.57 -12.3889L1455.43 -2.45753L1455.47 -1.45876ZM-300.748 1232.08L-301.747 1232.13L-301.697 1233.13L-300.699 1233.08L-300.748 1232.08ZM-367 -103.11L-367.05 -104.108L-368.048 -104.059L-367.999 -103.06L-367 -103.11ZM706.456 1182.1L706.505 1183.1L707.504 1183.05L707.455 1182.05L706.456 1182.1ZM640.204 -153.087L641.203 -153.136L641.153 -154.135L640.154 -154.086L640.204 -153.087ZM705.165 1182.17L704.166 1182.22L704.215 1183.22L705.214 1183.17L705.165 1182.17ZM638.913 -153.023L638.863 -154.022L637.864 -153.972L637.914 -152.973L638.913 -153.023ZM1712.37 1132.19L1712.42 1133.19L1713.42 1133.14L1713.37 1132.14L1712.37 1132.19ZM1646.12 -203L1647.12 -203.05L1647.07 -204.048L1646.07 -203.999L1646.12 -203ZM-100.648 1221.15L-300.798 1231.08L-300.699 1233.08L-100.549 1223.15L-100.648 1221.15ZM-299.749 1232.03L-309.232 1040.92L-311.23 1041.02L-301.747 1232.13L-299.749 1232.03ZM-309.232 1040.92L-318.651 851.102L-320.649 851.201L-311.23 1041.02L-309.232 1040.92ZM-318.651 851.102L-328.134 659.991L-330.131 660.091L-320.649 851.201L-318.651 851.102ZM-328.134 659.991L-337.617 468.881L-339.614 468.98L-330.131 660.091L-328.134 659.991ZM-337.617 468.881L-347.1 277.77L-349.097 277.87L-339.614 468.98L-337.617 468.881ZM-347.1 277.77L-356.518 87.9512L-358.516 88.0504L-349.097 277.87L-347.1 277.77ZM-366.95 -102.111L-166.801 -112.042L-166.9 -114.04L-367.05 -104.108L-366.95 -102.111ZM-356.518 87.9512L-366.001 -103.159L-367.999 -103.06L-358.516 88.0504L-356.518 87.9512ZM102.084 1211.09L-100.648 1221.15L-100.549 1223.15L102.183 1213.09L102.084 1211.09ZM-166.801 -112.042L35.9312 -122.102L35.832 -124.099L-166.9 -114.04L-166.801 -112.042ZM302.233 1201.16L102.084 1211.09L102.183 1213.09L302.333 1203.16L302.233 1201.16ZM35.9312 -122.102L236.081 -132.033L235.982 -134.031L35.832 -124.099L35.9312 -122.102ZM504.965 1191.1L302.233 1201.16L302.333 1203.16L505.065 1193.1L504.965 1191.1ZM236.081 -132.033L438.813 -142.093L438.714 -144.09L235.982 -134.031L236.081 -132.033ZM695.974 991.043L705.457 1182.15L707.455 1182.05L697.972 990.944L695.974 991.043ZM706.406 1181.11L504.965 1191.1L505.065 1193.1L706.505 1183.1L706.406 1181.11ZM686.555 801.224L695.974 991.043L697.972 990.944L688.553 801.125L686.555 801.224ZM677.073 610.113L686.555 801.224L688.553 801.125L679.07 610.014L677.073 610.113ZM667.59 419.003L677.073 610.113L679.07 610.014L669.587 418.904L667.59 419.003ZM658.107 227.892L667.59 419.003L669.587 418.904L660.104 227.793L658.107 227.892ZM648.688 38.0732L658.107 227.892L660.104 227.793L650.686 37.9741L648.688 38.0732ZM438.813 -142.093L640.254 -152.088L640.154 -154.086L438.714 -144.09L438.813 -142.093ZM639.205 -153.037L648.688 38.0732L650.686 37.9741L641.203 -153.136L639.205 -153.037ZM906.556 1171.17L705.115 1181.17L705.214 1183.17L906.655 1173.17L906.556 1171.17ZM706.163 1182.12L696.68 991.008L694.683 991.107L704.166 1182.22L706.163 1182.12ZM696.68 991.008L687.262 801.189L685.264 801.288L694.683 991.107L696.68 991.008ZM687.262 801.189L677.779 610.078L675.781 610.177L685.264 801.288L687.262 801.189ZM677.779 610.078L668.296 418.968L666.298 419.067L675.781 610.177L677.779 610.078ZM668.296 418.968L658.813 227.857L656.816 227.956L666.298 419.067L668.296 418.968ZM658.813 227.857L649.394 38.0381L647.397 38.1372L656.816 227.956L658.813 227.857ZM638.962 -152.024L840.403 -162.019L840.304 -164.017L638.863 -154.022L638.962 -152.024ZM649.394 38.0381L639.912 -153.072L637.914 -152.973L647.397 38.1372L649.394 38.0381ZM1309.44 1151.18L1109.29 1161.11L1109.39 1163.11L1309.54 1153.18L1309.44 1151.18ZM1043.14 -172.079L1243.28 -182.01L1243.19 -184.008L1043.04 -174.077L1043.14 -172.079ZM1109.29 1161.11L906.556 1171.17L906.655 1173.17L1109.39 1163.11L1109.29 1161.11ZM840.403 -162.019L1043.14 -172.079L1043.04 -174.077L840.304 -164.017L840.403 -162.019ZM1512.17 1141.12L1309.44 1151.18L1309.54 1153.18L1512.27 1143.12L1512.17 1141.12ZM1243.28 -182.01L1446.02 -192.07L1445.92 -194.067L1243.19 -184.008L1243.28 -182.01ZM1701.89 941.13L1711.37 1132.24L1713.37 1132.14L1703.88 941.031L1701.89 941.13ZM1712.32 1131.19L1512.17 1141.12L1512.27 1143.12L1712.42 1133.19L1712.32 1131.19ZM1692.47 751.311L1701.89 941.13L1703.88 941.031L1694.47 751.212L1692.47 751.311ZM1682.99 560.2L1692.47 751.311L1694.47 751.212L1684.98 560.101L1682.99 560.2ZM1673.5 369.09L1682.99 560.2L1684.98 560.101L1675.5 368.991L1673.5 369.09ZM1664.02 177.979L1673.5 369.09L1675.5 368.991L1666.02 177.88L1664.02 177.979ZM1654.6 -11.8399L1664.02 177.979L1666.02 177.88L1656.6 -11.9391L1654.6 -11.8399ZM1446.02 -192.07L1646.17 -202.001L1646.07 -203.999L1445.92 -194.067L1446.02 -192.07ZM1645.12 -202.95L1654.6 -11.8399L1656.6 -11.9391L1647.12 -203.05L1645.12 -202.95Z" fill="url(#paint0_linear_13_79)" mask="url(#path-1-inside-1_13_79)"/>
</g>
<defs>
<linearGradient id="paint0_linear_13_79" x1="639.558" y1="-153.055" x2="705.81" y2="1182.14" gradientUnits="userSpaceOnUse">
<stop offset="0.76" stop-color="white"/>
<stop offset="1" stop-color="white" stop-opacity="0"/>
</linearGradient>
</defs>
</svg>
